<svg id="visual" viewBox="0 0 1920 1080" width="1920" height="1080" xmlns="http://www.w3.org/2000/svg" xmlns:xlink="http://www.w3.org/1999/xlink" version="1.1"><g><g transform="translate(936 1027)"><path d="M0 -67.9L58.8 -34L58.8 34L0 67.9L-58.8 34L-58.8 -34Z" fill="#7c86ff"></path></g><g transform="translate(561 610)"><path d="M0 -51L44.2 -25.5L44.2 25.5L0 51L-44.2 25.5L-44.2 -25.5Z" fill="#7c86ff"></path></g><g transform="translate(835 165)"><path d="M0 -38L32.9 -19L32.9 19L0 38L-32.9 19L-32.9 -19Z" fill="#7c86ff"></path></g><g transform="translate(971 172)"><path d="M0 -66L57.2 -33L57.2 33L0 66L-57.2 33L-57.2 -33Z" fill="#7c86ff"></path></g><g transform="translate(1345 795)"><path d="M0 -58L50.2 -29L50.2 29L0 58L-50.2 29L-50.2 -29Z" fill="#7c86ff"></path></g><g transform="translate(1278 921)"><path d="M0 -62L53.7 -31L53.7 31L0 62L-53.7 31L-53.7 -31Z" fill="#7c86ff"></path></g><g transform="translate(178 683)"><path d="M0 -58L50.2 -29L50.2 29L0 58L-50.2 29L-50.2 -29Z" fill="#7c86ff"></path></g><g transform="translate(1746 759)"><path d="M0 -59L51.1 -29.5L51.1 29.5L0 59L-51.1 29.5L-51.1 -29.5Z" fill="#7c86ff"></path></g><g transform="translate(1320 234)"><path d="M0 -56L48.5 -28L48.5 28L0 56L-48.5 28L-48.5 -28Z" fill="#7c86ff"></path></g><g transform="translate(873 425)"><path d="M0 -46L39.8 -23L39.8 23L0 46L-39.8 23L-39.8 -23Z" fill="#7c86ff"></path></g><g transform="translate(1904 636)"><path d="M0 -53L45.9 -26.5L45.9 26.5L0 53L-45.9 26.5L-45.9 -26.5Z" fill="#7c86ff"></path></g><g transform="translate(583 45)"><path d="M0 -64L55.4 -32L55.4 32L0 64L-55.4 32L-55.4 -32Z" fill="#7c86ff"></path></g><g transform="translate(397 29)"><path d="M0 -54L46.8 -27L46.8 27L0 54L-46.8 27L-46.8 -27Z" fill="#7c86ff"></path></g><g transform="translate(270 545)"><path d="M0 -37L32 -18.5L32 18.5L0 37L-32 18.5L-32 -18.5Z" fill="#7c86ff"></path></g><g transform="translate(673 371)"><path d="M0 -63L54.6 -31.5L54.6 31.5L0 63L-54.6 31.5L-54.6 -31.5Z" fill="#7c86ff"></path></g><g transform="translate(1796 526)"><path d="M0 -48L41.6 -24L41.6 24L0 48L-41.6 24L-41.6 -24Z" fill="#7c86ff"></path></g><g transform="translate(260 362)"><path d="M0 -61L52.8 -30.5L52.8 30.5L0 61L-52.8 30.5L-52.8 -30.5Z" fill="#7c86ff"></path></g><g transform="translate(1462 689)"><path d="M0 -56L48.5 -28L48.5 28L0 56L-48.5 28L-48.5 -28Z" fill="#7c86ff"></path></g><g transform="translate(1602 152)"><path d="M0 -60L52 -30L52 30L0 60L-52 30L-52 -30Z" fill="#7c86ff"></path></g><g transform="translate(1556 922)"><path d="M0 -58L50.2 -29L50.2 29L0 58L-50.2 29L-50.2 -29Z" fill="#7c86ff"></path></g><g transform="translate(890 23)"><path d="M0 -55L47.6 -27.5L47.6 27.5L0 55L-47.6 27.5L-47.6 -27.5Z" fill="#7c86ff"></path></g><g transform="translate(1141 272)"><path d="M0 -53L45.9 -26.5L45.9 26.5L0 53L-45.9 26.5L-45.9 -26.5Z" fill="#7c86ff"></path></g><g transform="translate(1131 520)"><path d="M0 -44L38.1 -22L38.1 22L0 44L-38.1 22L-38.1 -22Z" fill="#7c86ff"></path></g><g transform="translate(476 855)"><path d="M0 -64L55.4 -32L55.4 32L0 64L-55.4 32L-55.4 -32Z" fill="#7c86ff"></path></g></g></svg>