<svg id="visual" viewBox="0 0 1920 1080" width="1920" height="1080" xmlns="http://www.w3.org/2000/svg" xmlns:xlink="http://www.w3.org/1999/xlink" version="1.1"><path d="M0 697L45.7 696.2C91.3 695.3 182.7 693.7 274.2 702.5C365.7 711.3 457.3 730.7 548.8 725.7C640.3 720.7 731.7 691.3 823 697.3C914.3 703.3 1005.7 744.7 1097 756.5C1188.3 768.3 1279.7 750.7 1371.2 735.7C1462.7 720.7 1554.3 708.3 1645.8 708.7C1737.3 709 1828.7 722 1874.3 728.5L1920 735L1920 1081L1874.3 1081C1828.7 1081 1737.3 1081 1645.8 1081C1554.3 1081 1462.7 1081 1371.2 1081C1279.7 1081 1188.3 1081 1097 1081C1005.7 1081 914.3 1081 823 1081C731.7 1081 640.3 1081 548.8 1081C457.3 1081 365.7 1081 274.2 1081C182.7 1081 91.3 1081 45.7 1081L0 1081Z" fill="#615fff"></path><path d="M0 753L45.7 760.2C91.3 767.3 182.7 781.7 274.2 799.7C365.7 817.7 457.3 839.3 548.8 831.3C640.3 823.3 731.7 785.7 823 772.2C914.3 758.7 1005.7 769.3 1097 779.8C1188.3 790.3 1279.7 800.7 1371.2 804.7C1462.7 808.7 1554.3 806.3 1645.8 813.5C1737.3 820.7 1828.7 837.3 1874.3 845.7L1920 854L1920 1081L1874.3 1081C1828.7 1081 1737.3 1081 1645.8 1081C1554.3 1081 1462.7 1081 1371.2 1081C1279.7 1081 1188.3 1081 1097 1081C1005.7 1081 914.3 1081 823 1081C731.7 1081 640.3 1081 548.8 1081C457.3 1081 365.7 1081 274.2 1081C182.7 1081 91.3 1081 45.7 1081L0 1081Z" fill="#6769ff"></path><path d="M0 805L45.7 815.8C91.3 826.7 182.7 848.3 274.2 863.7C365.7 879 457.3 888 548.8 893.8C640.3 899.7 731.7 902.3 823 905.8C914.3 909.3 1005.7 913.7 1097 898.7C1188.3 883.7 1279.7 849.3 1371.2 832.7C1462.7 816 1554.3 817 1645.8 817.5C1737.3 818 1828.7 818 1874.3 818L1920 818L1920 1081L1874.3 1081C1828.7 1081 1737.3 1081 1645.8 1081C1554.3 1081 1462.7 1081 1371.2 1081C1279.7 1081 1188.3 1081 1097 1081C1005.7 1081 914.3 1081 823 1081C731.7 1081 640.3 1081 548.8 1081C457.3 1081 365.7 1081 274.2 1081C182.7 1081 91.3 1081 45.7 1081L0 1081Z" fill="#6e73ff"></path><path d="M0 937L45.7 932.8C91.3 928.7 182.7 920.3 274.2 917.8C365.7 915.3 457.3 918.7 548.8 928C640.3 937.3 731.7 952.7 823 951.7C914.3 950.7 1005.7 933.3 1097 924.8C1188.3 916.3 1279.7 916.7 1371.2 924.8C1462.7 933 1554.3 949 1645.8 954.8C1737.3 960.7 1828.7 956.3 1874.3 954.2L1920 952L1920 1081L1874.3 1081C1828.7 1081 1737.3 1081 1645.8 1081C1554.3 1081 1462.7 1081 1371.2 1081C1279.7 1081 1188.3 1081 1097 1081C1005.7 1081 914.3 1081 823 1081C731.7 1081 640.3 1081 548.8 1081C457.3 1081 365.7 1081 274.2 1081C182.7 1081 91.3 1081 45.7 1081L0 1081Z" fill="#757dff"></path><path d="M0 978L45.7 972.8C91.3 967.7 182.7 957.3 274.2 956.3C365.7 955.3 457.3 963.7 548.8 976.8C640.3 990 731.7 1008 823 1008.7C914.3 1009.3 1005.7 992.7 1097 991.2C1188.3 989.7 1279.7 1003.3 1371.2 1003.2C1462.7 1003 1554.3 989 1645.8 984.3C1737.3 979.7 1828.7 984.3 1874.3 986.7L1920 989L1920 1081L1874.3 1081C1828.7 1081 1737.3 1081 1645.8 1081C1554.3 1081 1462.7 1081 1371.2 1081C1279.7 1081 1188.3 1081 1097 1081C1005.7 1081 914.3 1081 823 1081C731.7 1081 640.3 1081 548.8 1081C457.3 1081 365.7 1081 274.2 1081C182.7 1081 91.3 1081 45.7 1081L0 1081Z" fill="#7c86ff"></path></svg>